<svg width="449" height="140" viewBox="0 0 449 140" fill="none" xmlns="http://www.w3.org/2000/svg">
<path d="M7.28182 112V28.2182H40.3364C46.6909 28.2182 52.1045 29.4318 56.5773 31.8591C61.05 34.2591 64.4591 37.6 66.8045 41.8818C69.1773 46.1364 70.3636 51.0455 70.3636 56.6091C70.3636 62.1727 69.1636 67.0818 66.7636 71.3364C64.3636 75.5909 60.8864 78.9045 56.3318 81.2773C51.8045 83.65 46.3227 84.8364 39.8864 84.8364H18.8182V70.6409H37.0227C40.4318 70.6409 43.2409 70.0545 45.45 68.8818C47.6864 67.6818 49.35 66.0318 50.4409 63.9318C51.5591 61.8045 52.1182 59.3636 52.1182 56.6091C52.1182 53.8273 51.5591 51.4 50.4409 49.3273C49.35 47.2273 47.6864 45.6045 45.45 44.4591C43.2136 43.2864 40.3773 42.7 36.9409 42.7H24.9955V112H7.28182ZM160.957 112V101.486L202.766 42.8227H160.875V28.2182H225.02V38.7318L183.17 97.3955H225.102V112H160.957ZM237.794 112V101.486L279.603 42.8227H237.713V28.2182H301.858V38.7318L260.008 97.3955H301.94V112H237.794ZM315.532 112V28.2182H333.245V97.3955H369.164V112H315.532Z" fill="white"/>
<path d="M441.718 112V28.2182H385.264V42.8227H424.005V62.7864H388.168V77.3909H424.005V97.3955H385.1V112H441.718Z" fill="#FF0000"/>
<path d="M133.032 111.782H150.745V57.3727C150.745 51.2636 149.286 45.9182 146.368 41.3364C143.477 36.7545 139.427 33.1818 134.218 30.6182C129.009 28.0818 122.941 26.8136 116.014 26.8136C109.059 26.8136 102.977 28.0818 97.7682 30.6182C92.5591 33.1818 88.5091 36.7545 85.6182 41.3364C82.7273 45.9182 81.2818 51.2636 81.2818 57.3727V111.782H98.9955V58.8864C98.9955 55.6955 99.6909 52.8591 101.082 50.3773C102.5 47.8955 104.491 45.9455 107.055 44.5273C109.618 43.1091 112.605 42.4 116.014 42.4C119.45 42.4 122.436 43.1091 124.973 44.5273C127.536 45.9455 129.514 47.8955 130.905 50.3773C132.323 52.8591 133.032 55.6955 133.032 58.8864V111.782Z" fill="#FF0000"/>
</svg>
